# xmcd
#
# Track frame offsets: 
#        150
#        12613
#        29257
#        38931
#        58991
#        81093
#        104337
#        126528
#        151650
#        176225
#        194423
#        212222
#        231367
#
# Disc length: 3248 seconds
#
# Revision: 0
# Processed by: cddbd v1.5.2PL0 Copyright (c) Steve Scherf et al.
# Submitted via: ExactAudioCopy v1.0b3
#
DISCID=bd0cae0d
DTITLE=苏曼 - 佳人曲
DYEAR=2009
DGENRE=Folk
TTITLE0=佳人曲
TTITLE1=旧梦不须记
TTITLE2=尘封之翼
TTITLE3=暖昧
TTITLE4=当你孤单你会想起谁
TTITLE5=感恩的心
TTITLE6=橄榄树
TTITLE7=美丽心情
TTITLE8=情人
TTITLE9=伤情
TTITLE10=相思河畔
TTITLE11=忆相思
TTITLE12=佳人曲（音乐版）
EXTD=
EXTT0=
EXTT1=
EXTT2=
EXTT3=
EXTT4=
EXTT5=
EXTT6=
EXTT7=
EXTT8=
EXTT9=
EXTT10=
EXTT11=
EXTT12=
PLAYORDER=
